<svg width="1438" height="409" viewBox="0 0 1438 409" fill="none" xmlns="http://www.w3.org/2000/svg">
<path d="M92.2581 30.9289C228.281 21.8461 320.552 14.5479 454.603 1.77461C499.803 -2.53244 572.796 2.01732 593.167 4.70665C627.901 9.29367 673.404 20.7775 696.663 30.8279L718.046 40.0671L738.954 31.0576C763.618 20.4322 802.263 10.4518 837.886 5.5097C857.316 2.81385 875.77 1.78112 914.774 1.20612C962.994 0.49754 970.022 0.807034 1031.1 6.32416C1134.63 15.6758 1229.16 23.1492 1331.93 30.1047C1384.49 33.6622 1437.42 37.5785 1438 37.8554V415H-2V37.0234C-1.38074 36.7286 46.3299 33.9961 92.2581 30.9289Z" fill="#000F1F"/>
<path d="M92.2581 38.3327C228.281 29.4249 320.552 22.2675 454.603 9.7404C499.803 5.51638 572.796 9.97843 593.167 12.6159C627.901 17.1145 673.404 28.377 696.663 38.2336L718.046 47.2947L738.954 38.4589C763.618 28.0383 802.263 18.2503 837.886 13.4035C857.316 10.7596 875.77 9.74679 914.774 9.18287C962.994 8.48795 970.022 8.79148 1031.1 14.2023C1134.63 23.3736 1229.16 30.703 1331.93 37.5243C1384.49 41.0133 1437.42 44.8541 1438 45.1257V415H-2V44.3097C-1.38074 44.0206 46.3299 41.3408 92.2581 38.3327Z" fill="#001933"/>
<path d="M454.649 10.2383C499.802 6.01877 572.756 10.477 593.103 13.1113C627.807 17.6062 673.264 28.8608 696.468 38.6943L717.852 47.7549L718.046 47.8379L718.241 47.7549L739.148 38.9199C763.761 28.5213 802.36 18.7422 837.953 13.8994C857.352 11.2598 875.782 10.2465 914.781 9.68262C962.98 8.98801 969.991 9.29056 1031.06 14.7002C1134.59 23.8718 1229.12 31.2018 1331.9 38.0234C1358.18 39.7679 1384.55 41.6001 1404.42 43.0303C1414.36 43.7454 1422.67 44.3598 1428.53 44.8125C1431.47 45.0389 1433.79 45.2247 1435.39 45.3623C1436.19 45.4311 1436.81 45.4878 1437.24 45.5312C1437.34 45.5411 1437.42 45.5512 1437.5 45.5596V414.5H-1.5V44.7461C-1.43948 44.74 -1.37192 44.7324 -1.29785 44.7256C-0.907832 44.6898 -0.34486 44.6451 0.380859 44.5918C1.83199 44.4852 3.924 44.3452 6.5625 44.1758C11.8391 43.837 19.2957 43.3809 28.1689 42.8398C45.9147 41.7578 69.3257 40.3362 92.291 38.832C228.317 29.924 320.594 22.7659 454.649 10.2383ZM454.65 2.27246C499.803 -2.02991 572.756 2.51613 593.102 5.20215C627.805 9.78525 673.262 21.2605 696.465 31.2871L717.848 40.5264L718.046 40.6113L718.244 40.5264L739.151 31.5166C763.763 20.9138 802.362 10.9428 837.954 6.00488C857.352 3.31342 875.783 2.28099 914.781 1.70605C962.98 0.997796 969.99 1.30632 1031.05 6.82227C1134.58 16.1742 1229.12 23.6478 1331.9 30.6035C1358.17 32.3822 1384.54 34.2507 1404.42 35.709C1414.36 36.4381 1422.67 37.0648 1428.53 37.5264C1431.47 37.7572 1433.78 37.9466 1435.39 38.0869C1436.19 38.1571 1436.81 38.2144 1437.24 38.2588C1437.34 38.2689 1437.42 38.2795 1437.5 38.2881V44.5537C1437.45 44.5484 1437.4 44.5418 1437.34 44.5361C1436.9 44.4918 1436.28 44.4352 1435.47 44.3662C1433.87 44.2282 1431.54 44.0418 1428.61 43.8154C1422.74 43.3626 1414.43 42.7483 1404.49 42.0332C1384.62 40.6029 1358.24 38.7699 1331.96 37.0254C1229.19 30.2043 1134.67 22.8751 1031.14 13.7041C970.053 8.29221 963.008 7.9874 914.767 8.68262C875.759 9.24661 857.279 10.2601 837.818 12.9082C802.166 17.7591 763.476 27.5557 738.76 37.998L718.046 46.751L696.857 37.7734C673.545 27.8938 627.994 16.6225 593.231 12.1201C572.836 9.47943 499.803 5.01375 454.556 9.24219C320.511 21.7688 228.244 28.9265 92.2256 37.834C69.2628 39.338 45.8538 40.7597 28.1074 41.8418C19.2348 42.3828 11.7765 42.8388 6.49805 43.1777C3.85919 43.3472 1.76354 43.4877 0.307617 43.5947C-0.419958 43.6482 -0.990337 43.6938 -1.38965 43.7305C-1.42787 43.734 -1.46465 43.7378 -1.5 43.7412V37.458C-1.43928 37.4518 -1.3713 37.4445 -1.29688 37.4375C-0.906948 37.401 -0.343809 37.3561 0.381836 37.3018C1.83291 37.193 3.92511 37.0497 6.56348 36.877C11.84 36.5315 19.296 36.0663 28.1689 35.5146C45.9147 34.4113 69.3257 32.9614 92.291 31.4277C228.318 22.3446 320.595 15.0463 454.65 2.27246Z" stroke="black"/>
<path d="M454.649 10.2383C499.802 6.01877 572.756 10.477 593.103 13.1113C627.807 17.6062 673.264 28.8608 696.468 38.6943L717.852 47.7549L718.046 47.8379L718.241 47.7549L739.148 38.9199C763.761 28.5213 802.36 18.7422 837.953 13.8994C857.352 11.2598 875.782 10.2465 914.781 9.68262C962.98 8.98801 969.991 9.29056 1031.06 14.7002C1134.59 23.8718 1229.12 31.2018 1331.9 38.0234C1358.18 39.7679 1384.55 41.6001 1404.42 43.0303C1414.36 43.7454 1422.67 44.3598 1428.53 44.8125C1431.47 45.0389 1433.79 45.2247 1435.39 45.3623C1436.19 45.4311 1436.81 45.4878 1437.24 45.5312C1437.34 45.5411 1437.42 45.5512 1437.5 45.5596V414.5H-1.5V44.7461C-1.43948 44.74 -1.37192 44.7324 -1.29785 44.7256C-0.907832 44.6898 -0.34486 44.6451 0.380859 44.5918C1.83199 44.4852 3.924 44.3452 6.5625 44.1758C11.8391 43.837 19.2957 43.3809 28.1689 42.8398C45.9147 41.7578 69.3257 40.3362 92.291 38.832C228.317 29.924 320.594 22.7659 454.649 10.2383ZM454.65 2.27246C499.803 -2.02991 572.756 2.51613 593.102 5.20215C627.805 9.78525 673.262 21.2605 696.465 31.2871L717.848 40.5264L718.046 40.6113L718.244 40.5264L739.151 31.5166C763.763 20.9138 802.362 10.9428 837.954 6.00488C857.352 3.31342 875.783 2.28099 914.781 1.70605C962.98 0.997796 969.99 1.30632 1031.05 6.82227C1134.58 16.1742 1229.12 23.6478 1331.9 30.6035C1358.17 32.3822 1384.54 34.2507 1404.42 35.709C1414.36 36.4381 1422.67 37.0648 1428.53 37.5264C1431.47 37.7572 1433.78 37.9466 1435.39 38.0869C1436.19 38.1571 1436.81 38.2144 1437.24 38.2588C1437.34 38.2689 1437.42 38.2795 1437.5 38.2881V44.5537C1437.45 44.5484 1437.4 44.5418 1437.34 44.5361C1436.9 44.4918 1436.28 44.4352 1435.47 44.3662C1433.87 44.2282 1431.54 44.0418 1428.61 43.8154C1422.74 43.3626 1414.43 42.7483 1404.49 42.0332C1384.62 40.6029 1358.24 38.7699 1331.96 37.0254C1229.19 30.2043 1134.67 22.8751 1031.14 13.7041C970.053 8.29221 963.008 7.9874 914.767 8.68262C875.759 9.24661 857.279 10.2601 837.818 12.9082C802.166 17.7591 763.476 27.5557 738.76 37.998L718.046 46.751L696.857 37.7734C673.545 27.8938 627.994 16.6225 593.231 12.1201C572.836 9.47943 499.803 5.01375 454.556 9.24219C320.511 21.7688 228.244 28.9265 92.2256 37.834C69.2628 39.338 45.8538 40.7597 28.1074 41.8418C19.2348 42.3828 11.7765 42.8388 6.49805 43.1777C3.85919 43.3472 1.76354 43.4877 0.307617 43.5947C-0.419958 43.6482 -0.990337 43.6938 -1.38965 43.7305C-1.42787 43.734 -1.46465 43.7378 -1.5 43.7412V37.458C-1.43928 37.4518 -1.3713 37.4445 -1.29688 37.4375C-0.906948 37.401 -0.343809 37.3561 0.381836 37.3018C1.83291 37.193 3.92511 37.0497 6.56348 36.877C11.84 36.5315 19.296 36.0663 28.1689 35.5146C45.9147 34.4113 69.3257 32.9614 92.291 31.4277C228.318 22.3446 320.595 15.0463 454.65 2.27246Z" stroke="black" stroke-opacity="0.2"/>
</svg>
